<svg width="89" height="40" viewBox="0 0 89 40" fill="none" xmlns="http://www.w3.org/2000/svg">
<g clip-path="url(#clip0_17916_14972)">
<path d="M13.2722 21.4617C13.3985 22.7434 13.4686 23.3984 12.4444 24.4949C11.3781 25.6342 8.71239 27.7275 5.99052 29.3225C4.84003 30.006 3.28267 30.8177 2.10413 31.2449C1.23426 31.5724 0.504681 31.7006 0.139894 31.0598C-0.0986206 30.6468 0.0136215 30.2623 0.139894 29.9348C1.09395 27.3288 3.81582 22.4443 5.59767 19.2829C5.78006 18.9554 5.97649 18.6279 6.15888 18.2861C8.90881 13.4871 12.5427 7.60575 13.2582 6.66588C13.3564 6.52347 13.5528 6.36683 13.7212 6.46651C13.8615 6.55195 13.8615 6.72284 13.8475 6.851C13.8475 6.86524 13.8054 7.03613 13.7773 7.10733C12.6128 11.9633 12.7391 16.7196 13.2722 21.4617Z" fill="#0AAFFF"/>
<path d="M16.986 23.2187C15.8355 22.6776 15.2322 22.407 14.8113 20.9545C14.3763 19.4593 13.9133 16.07 13.9133 12.8659C13.9133 11.5273 13.9975 9.76152 14.208 8.50836C14.3763 7.56849 14.6289 6.85647 15.3585 6.85647C15.8355 6.85647 16.1021 7.15551 16.3265 7.42608C18.0803 9.56215 20.8583 14.4039 22.6823 17.5653C22.8647 17.8786 23.047 18.2061 23.2435 18.5479C25.9653 23.3612 29.1642 29.4988 29.6132 30.5953C29.6834 30.7519 29.7255 30.994 29.5431 31.108C29.4028 31.1792 29.2625 31.0937 29.1642 31.0225C29.1502 31.0083 29.0239 30.8801 28.9818 30.8374C25.4182 27.377 21.3073 25.1127 16.986 23.2187Z" fill="#0AAFFF"/>
<path d="M13.9967 25.7183C15.035 24.9778 15.5681 24.5933 17.0132 24.9351C18.5004 25.3053 21.6292 26.6012 24.3651 28.1961C25.5015 28.8654 26.9747 29.8338 27.9428 30.6455C28.6443 31.2578 29.1354 31.8274 28.7706 32.4683C28.5321 32.8812 28.1533 32.9809 27.8025 33.0379C25.0947 33.5078 19.5667 33.5363 15.975 33.5648C15.6102 33.5648 15.2314 33.5648 14.8526 33.5648C9.38076 33.5505 2.54802 33.2942 1.3835 33.1376C1.21514 33.1233 0.990657 33.0379 0.990657 32.8243C0.990657 32.6676 1.13096 32.568 1.2432 32.5252C1.27126 32.5252 1.43963 32.4683 1.49575 32.454C6.22395 31.0585 10.2226 28.5806 13.9967 25.7183Z" fill="#0AAFFF"/>
<path d="M41.5863 13.2178C41.9443 13.2178 42.2367 13.2406 42.4634 13.2862V15.356C42.2964 15.3218 42.0995 15.3047 41.8727 15.3047C41.4073 15.3047 41.0254 15.4415 40.727 15.7152C40.4406 15.9775 40.2974 16.3253 40.2974 16.7587V17.785H42.4634V19.8377H40.2974V26.6116H37.7732V19.8377H36.1084V17.785H37.7732V16.81C37.7732 15.7152 38.1193 14.8428 38.8115 14.1928C39.5157 13.5428 40.4406 13.2178 41.5863 13.2178Z" fill="#161616"/>
<path d="M49.0504 20.0088C48.2985 20.0088 47.6958 20.2026 47.2423 20.5904C46.8008 20.9667 46.58 21.4627 46.58 22.0786V26.6116H44.0738V17.785H46.4905V18.76C47.0036 18.0416 47.8569 17.6824 49.0504 17.6824V20.0088Z" fill="#161616"/>
<path d="M55.1198 17.614C56.0627 17.614 56.904 17.8078 57.644 18.1955C58.3839 18.5719 58.9627 19.1079 59.3804 19.8035C59.8101 20.4877 60.0249 21.286 60.0249 22.1983C60.0249 23.1106 59.8101 23.9146 59.3804 24.6102C58.9627 25.3058 58.3839 25.8418 57.644 26.2181C56.904 26.5945 56.0627 26.7826 55.1198 26.7826C54.189 26.7826 53.3476 26.5945 52.5957 26.2181C51.8558 25.8418 51.277 25.3058 50.8593 24.6102C50.4416 23.9146 50.2327 23.1106 50.2327 22.1983C50.2327 21.286 50.4416 20.4877 50.8593 19.8035C51.2889 19.1079 51.8737 18.5719 52.6136 18.1955C53.3536 17.8078 54.189 17.614 55.1198 17.614ZM55.1198 19.6666C54.4277 19.6666 53.8608 19.8947 53.4192 20.3509C52.9896 20.807 52.7747 21.4228 52.7747 22.1983C52.7747 22.9738 52.9896 23.5896 53.4192 24.0457C53.8608 24.5019 54.4277 24.7299 55.1198 24.7299C55.8359 24.7299 56.4088 24.5076 56.8384 24.0628C57.28 23.6067 57.5008 22.9852 57.5008 22.1983C57.5008 21.4114 57.28 20.7956 56.8384 20.3509C56.4088 19.8947 55.8359 19.6666 55.1198 19.6666Z" fill="#161616"/>
<path d="M67.0726 17.614C68.1467 17.614 69.012 17.9276 69.6684 18.5548C70.3247 19.1706 70.6529 20.0316 70.6529 21.1377V26.6116H68.1467V21.668C68.1467 21.0978 67.9916 20.6531 67.6813 20.3338C67.3829 20.0031 66.9712 19.8377 66.4461 19.8377C65.921 19.8377 65.4913 20.0088 65.1572 20.3509C64.8349 20.693 64.6738 21.1377 64.6738 21.6851V26.6116H62.1676V17.785H64.5306V18.6916C64.7335 18.3837 65.0557 18.1271 65.4973 17.9219C65.9389 17.7166 66.464 17.614 67.0726 17.614Z" fill="#161616"/>
<path d="M77.083 26.7655C76.0447 26.7655 75.2272 26.5203 74.6304 26.03C74.0457 25.5396 73.7592 24.8041 73.7712 23.8233L73.7891 19.8377H72.0884V17.785H73.7891L73.807 14.8428H76.3311L76.3132 17.785H78.4972V19.8377H76.2953L76.2774 23.2075C76.2774 23.6865 76.4087 24.04 76.6712 24.2681C76.9338 24.4962 77.2679 24.6102 77.6737 24.6102C77.9482 24.6102 78.2287 24.5874 78.5151 24.5418V26.6629C78.0138 26.7313 77.5365 26.7655 77.083 26.7655Z" fill="#161616"/>
<path d="M85.7006 22.147L88.6722 26.6116H85.8438L83.9641 23.7891L82.1203 26.6116H79.2918L82.2456 22.147L79.3455 17.785H82.1561L83.9641 20.539L85.7901 17.785H88.5827L85.7006 22.147Z" fill="#161616"/>
</g>
<defs>
<clipPath id="clip0_17916_14972">
<rect width="88.6721" height="40" fill="white"/>
</clipPath>
</defs>
</svg>
